<svg width="454" height="360" viewBox="0 0 454 360" fill="none" xmlns="http://www.w3.org/2000/svg">
<path fill-rule="evenodd" clip-rule="evenodd" d="M385.348 68.9333C382.702 66.2776 381.218 62.6768 381.218 58.921V12.9052C381.218 5.778 375.463 0 368.362 0H326.603C319.501 0 313.746 5.778 313.746 12.9052V54.8325C313.746 61.9581 319.501 67.7377 326.603 67.7377H372.415C376.155 67.7377 379.742 69.2281 382.388 71.8839L382.399 71.896C385.044 74.5502 386.529 78.151 386.529 81.9069V347.094C386.529 354.221 392.285 360 399.384 360H441.146C448.247 360 454 354.221 454 347.094V85.9862C454 78.8576 448.247 73.0795 441.146 73.0795H395.321C391.58 73.0795 387.994 71.5891 385.348 68.9333Z" fill="#00FFAF"/>
<path fill-rule="evenodd" clip-rule="evenodd" d="M71.5791 218.075L71.6321 218.022C74.2759 215.382 77.8536 213.898 81.5809 213.898H194.93C201.997 213.898 207.726 208.146 207.726 201.051V154.912C207.726 151.188 209.204 147.618 211.835 144.989L211.884 144.941C214.529 142.3 218.107 140.818 221.837 140.818H267.714C274.78 140.818 280.511 135.066 280.511 127.97V85.9269C280.511 78.8333 274.78 73.0795 267.714 73.0795H221.831C218.089 73.0795 214.502 71.5876 211.859 68.9333C209.213 66.2776 207.726 62.6768 207.726 58.921V12.8474C207.726 5.75217 201.997 0 194.93 0H13.0089C5.82493 0 0 5.84636 0 13.0617V54.676C0 61.8897 5.82493 67.7377 13.0089 67.7377H198.918C202.663 67.7377 206.255 69.2311 208.903 71.8899C211.551 74.5487 213.041 78.1542 213.041 81.9145V132.026C213.041 135.77 211.555 139.36 208.911 142.002L208.877 142.037C206.233 144.678 202.655 146.16 198.929 146.16H85.5792C78.5134 146.16 72.7838 151.912 72.7838 159.008V205.111C72.7838 208.845 71.3051 212.427 68.6764 215.068L68.6295 215.112C65.9994 217.753 62.4338 219.237 58.7139 219.237H12.797C5.72959 219.237 0 224.989 0 232.084V274.128C0 281.222 5.72808 286.973 12.797 286.973H58.7608C62.4792 286.973 66.0478 288.457 68.6764 291.098H68.678C71.3066 293.737 72.7838 297.318 72.7838 301.052V347.151C72.7838 354.247 78.5134 359.996 85.5792 359.999L267.501 360C274.686 360 280.511 354.152 280.511 346.939V305.324C280.511 298.109 274.686 292.262 267.501 292.262L81.5794 292.259C77.8505 292.259 74.2729 290.777 71.6291 288.137L71.5791 288.089C68.9504 285.463 67.4718 281.893 67.4718 278.171V227.994C67.4718 224.271 68.9504 220.702 71.5791 218.075Z" fill="#00FFAF"/>
</svg>
